<svg width="30" height="30" viewBox="0 0 30 30" fill="none" xmlns="http://www.w3.org/2000/svg">
<rect width="30" height="30" rx="15" fill="#326A90"/>
<path d="M12.0557 14.1035H17.9443M15 16.9687V11.2382M7.14844 14.3442C7.14844 21.6859 13.9381 24.2646 14.8891 24.5903C14.963 24.6157 15.037 24.6157 15.1109 24.5903C16.0639 24.2751 22.8516 21.7613 22.8516 14.3451V7.70826C22.8518 7.62291 22.8226 7.53994 22.7687 7.4726C22.7148 7.40527 22.6393 7.35743 22.5542 7.33673L15.0952 5.51922C15.0327 5.50401 14.9673 5.50401 14.9048 5.51922L7.44582 7.33673C7.36072 7.35743 7.2852 7.40527 7.2313 7.4726C7.17741 7.53994 7.14823 7.62291 7.14844 7.70826V14.3442Z" stroke="white" stroke-miterlimit="10" stroke-linecap="round" stroke-linejoin="round"/>
</svg>
